<?xml version="1.0" standalone="no"?>
<!DOCTYPE svg PUBLIC "-//W3C//DTD SVG 20010904//EN"
 "http://www.w3.org/TR/2001/REC-SVG-20010904/DTD/svg10.dtd">
<svg version="1.0" xmlns="http://www.w3.org/2000/svg"
 width="200.000000pt" height="200.000000pt" viewBox="0 0 200.000000 200.000000"
 preserveAspectRatio="xMidYMid meet">
<metadata>
Created by potrace 1.11, written by Peter Selinger 2001-2013
</metadata>
<g transform="translate(0.000000,200.000000) scale(0.100000,-0.100000)"
fill="#000000" stroke="none">
<path d="M880 1496 l0 -192 -37 -17 c-79 -35 -143 -115 -166 -207 -29 -112 -1
-208 85 -293 32 -32 58 -59 58 -60 0 -1 -38 -2 -85 -1 l-85 0 0 -63 c0 -35 -4
-63 -10 -63 -12 0 -12 3 -14 73 -1 47 -3 52 -24 53 -68 4 -144 -74 -158 -162
-5 -36 -4 -42 15 -47 17 -4 21 -1 21 21 1 58 57 142 95 142 8 0 11 -43 11
-136 -1 -74 1 -138 4 -142 8 -11 30 -13 31 -2 1 6 2 15 3 22 0 6 7 13 14 15 9
4 12 -11 12 -52 0 -48 2 -56 18 -53 15 3 17 20 19 166 1 89 2 169 2 177 1 12
20 15 106 15 l105 0 0 -53 c0 -43 5 -58 23 -75 29 -28 76 -28 105 -2 22 21 24
26 26 90 l1 35 105 0 105 0 1 -165 c2 -203 0 -192 21 -188 14 3 18 14 18 52 0
31 5 51 13 53 7 3 12 -5 12 -19 0 -15 6 -25 15 -25 19 0 18 -10 21 142 3 158
1 145 17 145 33 0 87 -84 87 -134 0 -16 7 -26 21 -29 19 -5 20 -2 16 36 -11
99 -65 161 -148 172 l-29 4 0 -66 c0 -47 -3 -64 -12 -61 -8 3 -14 25 -14 59
-1 30 -2 57 -3 62 -1 4 -29 7 -63 6 -35 -1 -74 -1 -88 0 -25 1 -25 1 6 20 80
49 137 157 136 256 0 84 -17 130 -77 211 -16 21 -15 22 25 21 l40 -1 0 -60 0
-60 63 61 62 61 110 0 c61 0 115 1 122 1 9 1 11 58 10 224 l-2 222 -382 2
-383 1 0 -192z m730 -31 c0 -141 -3 -185 -12 -186 -7 -1 -59 -2 -115 -3 l-102
-1 -30 -34 -30 -33 -3 33 -3 34 -90 1 c-67 0 -99 5 -125 19 -22 11 -61 19
-105 21 l-70 3 -3 166 -2 165 345 0 345 0 0 -185z m-542 -199 c90 -32 112 -65
38 -60 -30 3 -34 0 -39 -25 -21 -106 -165 -102 -181 4 -2 16 -11 20 -39 20
-47 1 -53 9 -21 29 68 45 167 58 242 32z m-208 -128 c47 -100 201 -94 241 10
8 20 15 23 56 20 46 -3 49 -5 72 -52 18 -36 24 -64 24 -110 -1 -110 -55 -195
-154 -245 -102 -51 -214 -35 -307 44 -80 67 -108 207 -62 313 l22 52 47 0 c42
0 47 -3 61 -32z m155 -494 c-2 -52 -13 -67 -46 -62 -26 3 -38 39 -31 88 3 23
7 25 41 22 l38 -4 -2 -44z m-365 -124 c0 -26 -4 -40 -13 -40 -9 0 -13 12 -11
38 2 44 2 42 14 42 6 0 10 -18 10 -40z m678 0 c-2 -46 -21 -49 -24 -4 -2 32 3
44 17 44 5 0 8 -18 7 -40z"/>
<path d="M1061 1489 c-39 -42 17 -103 65 -71 24 15 26 50 5 71 -27 27 -45 26
-70 0z m44 -29 c3 -5 -1 -10 -10 -10 -9 0 -13 5 -10 10 3 6 8 10 10 10 2 0 7
-4 10 -10z"/>
<path d="M1242 1503 c-23 -9 -33 -40 -21 -67 15 -32 30 -37 60 -22 58 28 21
114 -39 89z m33 -43 c3 -5 -1 -10 -10 -10 -9 0 -13 5 -10 10 3 6 8 10 10 10 2
0 7 -4 10 -10z"/>
<path d="M1395 1490 c-27 -29 -10 -74 28 -78 53 -6 77 46 39 81 -25 22 -45 21
-67 -3z m45 -36 c0 -8 -4 -12 -10 -9 -5 3 -10 10 -10 16 0 5 5 9 10 9 6 0 10
-7 10 -16z"/>
<path d="M885 1028 c-11 -6 -21 -11 -21 -12 -1 -1 -5 -11 -8 -23 -15 -49 63
-80 88 -36 14 24 14 35 2 51 -17 23 -41 31 -61 20z m35 -42 c0 -11 -19 -15
-25 -6 -3 5 1 10 9 10 9 0 16 -2 16 -4z"/>
<path d="M1027 1020 c-31 -25 -26 -67 10 -81 62 -24 99 62 38 89 -19 9 -28 7
-48 -8z m43 -34 c0 -11 -19 -15 -25 -6 -3 5 1 10 9 10 9 0 16 -2 16 -4z"/>
<path d="M900 856 c0 -45 52 -75 107 -61 32 8 52 32 53 63 0 21 -4 22 -80 22
-78 0 -80 -1 -80 -24z m98 -23 c-10 -2 -26 -2 -35 0 -10 3 -2 5 17 5 19 0 27
-2 18 -5z"/>
<path d="M673 1465 c-23 -25 -11 -53 30 -68 11 -4 17 -2 17 7 0 8 5 16 12 18
17 6 19 38 2 38 -8 0 -14 5 -14 10 0 15 -33 11 -47 -5z"/>
<path d="M395 1250 c3 -5 -1 -10 -9 -10 -9 0 -16 -9 -16 -20 0 -11 7 -20 16
-20 8 0 13 -4 10 -9 -3 -5 3 -11 14 -14 11 -3 20 0 20 5 0 6 8 17 18 24 16 12
16 14 -5 33 -22 21 -59 29 -48 11z"/>
<path d="M1374 1007 c-20 -21 -22 -53 -3 -41 5 3 9 -2 9 -10 0 -25 35 -19 49
8 11 20 10 27 -5 45 -23 26 -24 26 -50 -2z"/>
<path d="M520 890 c0 -5 -6 -10 -14 -10 -17 0 -15 -32 2 -38 7 -2 12 -10 12
-17 0 -8 7 -11 20 -8 11 3 17 9 14 14 -3 5 2 9 10 9 9 0 16 9 16 21 0 11 -4
18 -9 15 -5 -3 -11 1 -15 9 -6 17 -36 21 -36 5z"/>
<path d="M1540 784 c0 -8 -4 -13 -9 -10 -5 3 -12 -1 -15 -9 -3 -9 1 -18 9 -21
8 -4 15 -12 15 -19 0 -17 23 -13 44 7 17 18 23 53 6 43 -5 -3 -10 1 -10 9 0 9
-9 16 -20 16 -11 0 -20 -7 -20 -16z"/>
<path d="M900 450 c0 -26 47 -60 81 -60 26 0 69 32 69 52 0 4 1 11 3 15 6 16
-34 9 -43 -8 -13 -24 -58 -25 -68 -1 -10 23 -42 25 -42 2z"/>
</g>
</svg>
